<svg width="101" height="16" viewBox="0 0 101 16" fill="none" xmlns="http://www.w3.org/2000/svg">
<path d="M27.0751 11.048C25.5791 11.048 24.4711 10.624 23.7511 9.776C23.4951 9.472 23.2871 9.068 23.1271 8.564C22.9671 8.06 22.8871 7.448 22.8871 6.728C22.8871 6.008 23.0031 5.364 23.2351 4.796C23.4751 4.22 23.7991 3.776 24.2071 3.464C24.9991 2.88 25.9551 2.588 27.0751 2.588C27.4351 2.588 27.7871 2.616 28.1311 2.672C28.4751 2.72 28.7311 2.772 28.8991 2.828L29.1511 2.912L29.1151 3.032C28.4911 2.816 27.8111 2.708 27.0751 2.708C26.2271 2.708 25.5191 2.984 24.9511 3.536C24.5191 3.944 24.2151 4.544 24.0391 5.336C23.9351 5.784 23.8831 6.332 23.8831 6.98C23.8831 7.628 23.9751 8.228 24.1591 8.78C24.3431 9.324 24.5511 9.728 24.7831 9.992C25.0231 10.256 25.3111 10.468 25.6471 10.628C25.9831 10.78 26.2511 10.868 26.4511 10.892C26.6511 10.916 26.8871 10.928 27.1591 10.928C27.4391 10.928 27.8111 10.896 28.2751 10.832V8.36H26.8231V8.24H29.7871V8.36H29.2711V10.724C28.6631 10.94 27.9311 11.048 27.0751 11.048ZM33.4041 11.048C32.5641 11.048 31.8801 10.808 31.3521 10.328C30.8241 9.848 30.5601 9.108 30.5601 8.108C30.5601 7.108 30.8321 6.332 31.3761 5.78C31.9281 5.228 32.6241 4.952 33.4641 4.952C34.3121 4.952 35.0001 5.192 35.5281 5.672C36.0561 6.152 36.3201 6.892 36.3201 7.892C36.3201 8.892 36.0441 9.668 35.4921 10.22C34.9481 10.772 34.2521 11.048 33.4041 11.048ZM33.4881 5.048C32.8801 5.048 32.3761 5.32 31.9761 5.864C31.5761 6.4 31.3761 7.152 31.3761 8.12C31.3761 9.08 31.5601 9.792 31.9281 10.256C32.2961 10.72 32.7841 10.952 33.3921 10.952C34.0001 10.952 34.5041 10.684 34.9041 10.148C35.3041 9.604 35.5041 8.852 35.5041 7.892C35.5041 6.924 35.3201 6.208 34.9521 5.744C34.5841 5.28 34.0961 5.048 33.4881 5.048ZM40.1189 11.048C39.2789 11.048 38.5949 10.808 38.0669 10.328C37.5389 9.848 37.2749 9.108 37.2749 8.108C37.2749 7.108 37.5469 6.332 38.0909 5.78C38.6429 5.228 39.3389 4.952 40.1789 4.952C41.0269 4.952 41.7149 5.192 42.2429 5.672C42.7709 6.152 43.0349 6.892 43.0349 7.892C43.0349 8.892 42.7589 9.668 42.2069 10.22C41.6629 10.772 40.9669 11.048 40.1189 11.048ZM40.2029 5.048C39.5949 5.048 39.0909 5.32 38.6909 5.864C38.2909 6.4 38.0909 7.152 38.0909 8.12C38.0909 9.08 38.2749 9.792 38.6429 10.256C39.0109 10.72 39.4989 10.952 40.1069 10.952C40.7149 10.952 41.2189 10.684 41.6189 10.148C42.0189 9.604 42.2189 8.852 42.2189 7.892C42.2189 6.924 42.0349 6.208 41.6669 5.744C41.2989 5.28 40.8109 5.048 40.2029 5.048ZM43.9898 8.216C43.9898 7.176 44.2418 6.372 44.7458 5.804C45.2498 5.236 46.0058 4.952 47.0138 4.952C47.4858 4.952 47.9618 5.072 48.4418 5.312V2.012H49.2818V10.148C49.2818 10.38 49.3258 10.56 49.4138 10.688C49.5098 10.808 49.6058 10.872 49.7018 10.88L49.8338 10.904H50.2058V11H49.4738C49.1458 11 48.8938 10.928 48.7178 10.784C48.5498 10.64 48.4618 10.496 48.4538 10.352L48.4418 10.148V9.956C48.2898 10.236 48.0378 10.484 47.6858 10.7C47.3338 10.916 46.9178 11.024 46.4378 11.024C44.8058 10.984 43.9898 10.048 43.9898 8.216ZM46.4498 10.928C46.9858 10.928 47.4458 10.784 47.8298 10.496C48.2138 10.208 48.4178 9.924 48.4418 9.644V5.42C47.8738 5.172 47.3858 5.048 46.9778 5.048C46.2658 5.048 45.7298 5.328 45.3698 5.888C45.0098 6.44 44.8298 7.216 44.8298 8.216C44.8298 10.024 45.3698 10.928 46.4498 10.928ZM54.0776 6.824H53.9816V4.82L52.5656 6.236L52.5056 6.176L53.9216 4.76H51.9176V4.664H53.9216L52.5056 3.248L52.5656 3.188L53.9816 4.604V2.6H54.0776V4.604L55.4936 3.188L55.5536 3.248L54.1376 4.664H56.1416V4.76H54.1376L55.5536 6.176L55.4936 6.236L54.0776 4.82V6.824ZM62.9656 2.6V2.72H59.1856V6.32H62.6896V6.44H59.1856V10.88H63.2296V11H58.1896V2.6H62.9656ZM68.9731 11C68.4291 11 68.0571 10.896 67.8571 10.688C67.6731 10.512 67.5811 10.36 67.5811 10.232V9.98C67.1891 10.692 66.5611 11.048 65.6971 11.048C64.6891 11.048 64.1171 10.592 63.9811 9.68C63.9651 9.584 63.9571 9.488 63.9571 9.392C63.9571 9.288 63.9731 9.176 64.0051 9.056C64.0371 8.936 64.1291 8.804 64.2811 8.66C64.5851 8.372 65.2531 8.196 66.2851 8.132C66.5411 8.108 66.7771 8.096 66.9931 8.096C67.2091 8.096 67.4051 8.104 67.5811 8.12V6.128C67.5651 6.12 67.5651 6.084 67.5811 6.02C67.5971 5.948 67.5811 5.86 67.5331 5.756C67.4931 5.644 67.4371 5.536 67.3651 5.432C67.2931 5.328 67.1651 5.24 66.9811 5.168C66.7971 5.088 66.5571 5.048 66.2611 5.048C65.9651 5.048 65.6171 5.104 65.2171 5.216C64.8251 5.32 64.5371 5.424 64.3531 5.528L64.3051 5.444C65.0171 5.116 65.7411 4.952 66.4771 4.952C67.3011 4.952 67.8451 5.1 68.1091 5.396C68.3171 5.628 68.4211 5.872 68.4211 6.128V10.148C68.4211 10.38 68.4651 10.56 68.5531 10.688C68.6491 10.808 68.7451 10.872 68.8411 10.88L68.9731 10.904H69.3451V11H68.9731ZM65.8891 10.952C66.3131 10.952 66.6931 10.808 67.0291 10.52C67.3731 10.224 67.5571 9.94 67.5811 9.668V8.216C67.3651 8.2 67.1451 8.192 66.9211 8.192C66.7051 8.192 66.4891 8.204 66.2731 8.228C65.6651 8.3 65.2691 8.436 65.0851 8.636C64.9011 8.836 64.8091 9.112 64.8091 9.464C64.8091 9.528 64.8131 9.6 64.8211 9.68C64.8931 10.528 65.2491 10.952 65.8891 10.952ZM70.1798 5.096V5H70.4318V3.8H71.2718V5H73.1078V5.096H71.2718V9.464C71.2718 9.984 71.3278 10.36 71.4398 10.592C71.5598 10.824 71.8038 10.94 72.1718 10.94C72.5478 10.94 72.9278 10.864 73.3118 10.712L73.3478 10.808C72.9478 10.96 72.4878 11.036 71.9678 11.036C71.4558 11.036 71.0718 10.932 70.8158 10.724C70.5598 10.508 70.4318 10.084 70.4318 9.452V5.096H70.1798ZM77.6344 5.42C77.5064 5.316 77.2984 5.228 77.0104 5.156C76.7304 5.084 76.5184 5.048 76.3744 5.048C76.2304 5.048 76.1464 5.048 76.1224 5.048C75.6904 5.056 75.3784 5.168 75.1864 5.384C74.9944 5.592 74.8984 5.828 74.8984 6.092C74.8984 6.356 74.9824 6.58 75.1504 6.764C75.3184 6.94 75.5264 7.08 75.7744 7.184C76.0304 7.28 76.3024 7.392 76.5904 7.52C76.8864 7.648 77.1584 7.78 77.4064 7.916C77.6624 8.044 77.8744 8.236 78.0424 8.492C78.2104 8.74 78.2944 9.052 78.2944 9.428C78.2944 9.804 78.1624 10.124 77.8984 10.388C77.6344 10.652 77.3384 10.828 77.0104 10.916C76.6904 11.004 76.3424 11.048 75.9664 11.048C75.1504 11.048 74.5384 10.868 74.1304 10.508L74.2024 10.436C74.3624 10.588 74.5984 10.712 74.9104 10.808C75.2304 10.904 75.5384 10.952 75.8344 10.952C76.3064 10.952 76.6944 10.824 76.9984 10.568C77.3104 10.304 77.4664 9.98 77.4664 9.596C77.4664 9.204 77.3504 8.892 77.1184 8.66C76.8864 8.42 76.6024 8.236 76.2664 8.108C75.9384 7.972 75.6064 7.84 75.2704 7.712C74.9344 7.576 74.6504 7.392 74.4184 7.16C74.1864 6.92 74.0704 6.644 74.0704 6.332C74.0704 6.02 74.1424 5.768 74.2864 5.576C74.4304 5.376 74.6224 5.236 74.8624 5.156C75.2704 5.02 75.6784 4.952 76.0864 4.952C76.7744 4.952 77.3104 5.08 77.6944 5.336L77.6344 5.42Z" fill="white"/>
<path d="M21 15.5H79" stroke="white" stroke-width="0.5"/>
</svg>
